<?xml version="1.0" standalone="no"?>
<!DOCTYPE svg PUBLIC "-//W3C//DTD SVG 20010904//EN"
 "http://www.w3.org/TR/2001/REC-SVG-20010904/DTD/svg10.dtd">
<svg version="1.0" xmlns="http://www.w3.org/2000/svg"
 width="373.000000pt" height="110.000000pt" viewBox="0 0 373.000000 110.000000"
 preserveAspectRatio="xMidYMid meet">

<g transform="translate(0.000000,110.000000) scale(0.100000,-0.100000)"
fill="#000000" stroke="none">
<path d="M0 550 l0 -550 1865 0 1865 0 0 550 0 550 -1865 0 -1865 0 0 -550z
m3507 367 c17 -16 18 -45 18 -362 0 -317 -1 -346 -18 -362 -17 -17 -55 -18
-627 -18 -571 0 -610 1 -627 18 -16 16 -18 46 -21 346 -2 206 1 338 7 355 6
14 21 31 33 36 13 5 274 8 620 7 559 -2 598 -3 615 -20z m-3048 -267 c19 -72
37 -132 40 -135 4 -2 22 57 41 131 l34 134 68 0 68 0 0 -215 0 -215 -39 0
c-35 0 -39 3 -45 31 -3 17 -6 86 -7 153 l-1 121 -37 -150 -36 -150 -45 -3 -45
-3 -35 153 -35 153 -6 -150 c-4 -82 -7 -151 -8 -152 0 -2 -19 -3 -41 -3 l-40
0 0 215 0 215 68 0 68 0 33 -130z m981 18 l1 -113 47 53 c46 51 48 52 102 52
l54 0 -52 -53 c-29 -29 -52 -57 -52 -62 0 -6 22 -48 50 -95 27 -47 50 -88 50
-92 0 -5 -20 -8 -43 -8 -43 0 -45 2 -72 53 -42 78 -45 80 -66 61 -14 -12 -19
-31 -19 -66 l0 -48 -40 0 -40 0 0 215 0 215 40 0 40 0 0 -112z m680 47 c0 -52
1 -55 25 -55 21 0 25 -5 25 -30 0 -25 -4 -30 -25 -30 l-26 0 3 -97 c3 -97 3
-98 28 -98 21 0 25 -5 25 -30 0 -29 -2 -30 -51 -33 -46 -3 -54 0 -73 24 -18
23 -21 40 -21 130 0 97 -1 104 -20 104 -16 0 -20 7 -20 30 0 23 4 30 20 30 16
0 20 7 20 30 0 23 8 35 38 54 20 14 40 25 45 25 4 1 7 -24 7 -54z m-1113 -65
c37 -22 41 -38 45 -192 l4 -108 -36 0 c-20 0 -41 5 -47 11 -8 8 -17 7 -34 -5
-13 -9 -43 -16 -67 -16 -84 0 -132 89 -82 153 20 25 42 35 128 57 50 13 60 45
16 56 -28 7 -74 -9 -74 -26 0 -13 -50 -13 -70 0 -13 8 -12 13 6 37 12 15 32
34 45 40 38 20 129 16 166 -7z m309 5 c3 -8 2 -27 -4 -42 -7 -24 -14 -28 -40
-25 -49 5 -62 -24 -62 -140 l0 -98 -45 0 -45 0 0 155 0 155 40 0 c31 0 40 -4
40 -17 0 -15 3 -14 22 5 26 26 85 30 94 7z m571 -5 c44 -26 63 -58 70 -119 l6
-51 -105 0 -105 0 5 -25 c5 -28 36 -55 63 -55 9 0 24 9 34 20 19 21 60 26 84
11 10 -7 11 -13 1 -30 -18 -34 -70 -61 -118 -61 -97 0 -152 59 -152 165 0 64
16 102 60 139 40 33 109 36 157 6z"/>
<path d="M2370 565 l0 -215 50 0 49 0 3 117 c3 116 3 117 30 133 21 11 32 12
45 4 15 -9 18 -29 21 -133 l3 -121 49 0 50 0 0 98 c-1 121 -12 171 -45 200
-31 26 -99 30 -133 6 l-22 -15 0 70 0 71 -50 0 -50 0 0 -215z"/>
<path d="M3100 565 l0 -215 45 0 c34 0 45 4 45 16 0 13 5 12 26 -5 55 -43 145
-16 177 52 26 54 23 155 -6 198 -12 18 -34 39 -47 46 -38 19 -94 16 -124 -8
l-26 -20 0 75 0 76 -45 0 -45 0 0 -215z m200 25 c16 -16 20 -33 20 -85 0 -52
-4 -69 -20 -85 -57 -57 -125 23 -106 125 11 59 68 83 106 45z"/>
<path d="M2742 524 c3 -135 3 -136 31 -160 37 -31 103 -33 141 -3 21 17 26 18
26 5 0 -12 11 -16 45 -16 l45 0 0 155 0 155 -45 0 -45 0 0 -94 c0 -52 -4 -106
-10 -120 -13 -35 -50 -52 -79 -37 -20 11 -21 20 -21 131 l0 120 -46 0 -46 0 4
-136z"/>
<path d="M887 478 c-22 -8 -27 -15 -25 -36 7 -62 90 -49 96 16 3 28 0 32 -20
31 -13 0 -36 -5 -51 -11z"/>
<path d="M1782 594 c-12 -8 -22 -26 -22 -40 0 -23 3 -24 55 -24 52 0 55 1 55
24 0 24 -32 56 -55 56 -6 0 -21 -7 -33 -16z"/>
</g>
</svg>
